<svg width="89" height="54" viewBox="0 0 89 54" fill="none" xmlns="http://www.w3.org/2000/svg">
<path id="Vector" fill-rule="evenodd" clip-rule="evenodd" d="M43.701 1.25372C48.4849 1.25372 53.0025 2.24587 57.0079 3.99566L55.2255 0.108235L58.4933 4.16703L61.9865 0L59.5894 4.72624L65.2134 5.22231L60.4807 5.78153C67.0163 9.68699 71.7183 15.8113 73.173 22.9187H72.8759C71.3496 15.8654 66.4529 9.85836 59.7226 6.25054L61.6895 10.5529L58.4216 6.49407L54.9387 10.6611L57.3255 5.92584L51.7015 5.43878L56.7006 4.84349C53.1255 3.41841 49.161 2.62469 44.9815 2.62469C31.1213 2.62469 19.5866 11.3646 17.087 22.9187H14.2289C16.749 10.607 28.9803 1.25372 43.701 1.25372ZM2.15124 24.2806H9.05571C9.25035 24.2806 9.42449 24.3347 9.5884 24.452C9.80352 24.6143 9.90596 24.8218 9.90596 25.0743V26.0124H9.89572C9.39376 26.0214 8.31814 26.0214 6.6791 26.0214C5.38835 26.0304 4.38444 26.0304 3.6776 26.0304C2.92979 26.0394 2.42783 26.0394 2.16149 26.0394C2.10002 26.0394 2.05905 26.0575 2.00783 26.0845C1.97709 26.1206 1.95661 26.1657 1.95661 26.2288V26.5896C1.95661 26.6798 1.99758 26.7339 2.07954 26.77C2.08978 26.77 2.10002 26.779 2.11027 26.779C2.12051 26.779 2.13075 26.779 2.141 26.779C3.78004 26.77 4.72249 26.77 4.9581 26.77C5.00932 26.77 5.12201 26.77 5.26542 26.761C5.69567 26.761 6.51519 26.752 7.7035 26.752H7.75472C7.90838 26.752 8.11326 26.77 8.3796 26.8061C8.564 26.8331 8.71766 26.8692 8.84058 26.9143C9.2401 27.0496 9.51669 27.2571 9.69084 27.5457C9.83425 27.8073 9.90596 28.1229 9.90596 28.4927V29.1782C9.90596 29.8547 9.68059 30.3327 9.22986 30.6123C8.86107 30.8378 8.31814 30.9551 7.59081 30.9551H0.860497C0.614641 30.9551 0.389273 30.8649 0.20488 30.6755C0.0614641 30.5312 0 30.3688 0 30.1794V29.2323H7.66252C7.75472 29.2323 7.80594 29.1963 7.83667 29.1241C7.84691 29.1151 7.84692 29.097 7.84692 29.088C7.85716 29.079 7.85716 29.079 7.85716 29.07V28.5739C7.85716 28.5018 7.81618 28.4567 7.72399 28.4296C7.7035 28.4206 7.68301 28.4206 7.66252 28.4206H2.16149C1.29075 28.4206 0.686349 28.2312 0.368785 27.8433C0.297076 27.7802 0.2561 27.708 0.225368 27.6539C0.184392 27.5908 0.15366 27.5186 0.122928 27.4284C0.0921961 27.3382 0.0614641 27.239 0.0409761 27.1218C0.020488 26.9865 0.010244 26.7971 0.010244 26.5355V26.4994C0.010244 25.8861 0.0717081 25.4622 0.194636 25.2277C0.2561 25.0743 0.358541 24.921 0.501957 24.7857C0.583909 24.7045 0.655617 24.6504 0.717081 24.6143C0.921961 24.4881 1.15757 24.4069 1.42392 24.3528C1.64929 24.3077 1.89514 24.2806 2.15124 24.2806ZM11.5962 24.2806H20.027C20.2319 24.2806 20.4061 24.3347 20.5392 24.452C20.6212 24.5151 20.6724 24.5692 20.6929 24.6053C20.7544 24.7226 20.7851 24.8128 20.7851 24.8939V26.0214H16.7285V30.9551H15.4685C15.2841 30.9551 15.1202 30.8919 14.9665 30.7657C14.9563 30.7657 14.9563 30.7566 14.9563 30.7566C14.946 30.7476 14.9255 30.7296 14.905 30.7115C14.8026 30.5853 14.7514 30.468 14.7514 30.3327V26.0214H10.8279V25.1375C10.8279 24.912 10.8382 24.7947 10.8484 24.7947C10.8791 24.6684 10.9406 24.5692 11.0226 24.4881C11.1045 24.4249 11.1762 24.3798 11.207 24.3618C11.2991 24.3077 11.4323 24.2806 11.5962 24.2806ZM23.3871 24.2806H24.9749C25.3027 24.2806 25.5691 24.3979 25.7944 24.6414C25.8456 24.7045 25.9174 24.8128 26.0096 24.9661C26.0198 24.9841 26.03 25.0022 26.0403 25.0202C26.0813 25.0653 26.3578 25.4982 26.8803 26.31C27.034 26.5445 27.1979 26.8151 27.3925 27.1127C28.591 28.9618 29.1954 29.9088 29.2364 29.9539L29.8715 30.9551H28.1915C27.751 30.9551 27.4232 30.7747 27.2183 30.4049C27.0647 30.1794 26.9622 30.017 26.8905 29.9088C26.8291 29.8096 26.7983 29.7645 26.7881 29.7555H21.5944C21.5841 29.7555 21.5739 29.7645 21.5637 29.7645C21.5534 29.7735 21.5534 29.7825 21.5432 29.8096L21.0617 30.5672C20.8363 30.8288 20.5392 30.9551 20.1705 30.9551H18.5212C18.5109 30.9551 18.5007 30.9551 18.5007 30.9551V30.946C19.31 29.6923 20.0066 28.61 20.6007 27.699C21.0719 26.9684 21.451 26.3731 21.7378 25.9222C22.1885 25.2277 22.4241 24.8579 22.4446 24.8308C22.5061 24.7406 22.5676 24.6504 22.6393 24.5783C22.8442 24.3798 23.1003 24.2806 23.3871 24.2806ZM24.1861 25.7057L22.4856 28.3484H25.8866C24.77 26.6257 24.2066 25.7508 24.1861 25.7057ZM31.2852 24.2806H36.7965C37.5443 24.2806 38.1897 24.3888 38.7224 24.5873C38.8351 24.6324 38.917 24.6594 38.9785 24.6865C39.0707 24.7316 39.1629 24.7857 39.2653 24.8398C39.757 25.1014 40.0951 25.4712 40.3 25.9402C40.4024 26.1928 40.4639 26.4633 40.4639 26.7429V26.8061C40.4639 27.1488 40.3819 27.4735 40.218 27.7712C40.1668 27.8614 40.1053 27.9606 40.0234 28.0598C39.9619 28.141 39.8799 28.2221 39.7878 28.3033C39.7468 28.3484 39.7058 28.3935 39.6648 28.4296L39.6034 28.4747L39.5624 28.5018L39.4804 28.5559C39.419 28.601 39.337 28.6461 39.2346 28.7002C39.2243 28.7092 39.2038 28.7182 39.1936 28.7272C39.0912 28.7723 39.0092 28.8084 38.9273 28.8445C38.8863 28.8625 38.8453 28.8806 38.8146 28.8986C38.6712 28.9437 38.5277 28.9978 38.3638 29.0339C38.8146 29.4398 39.1219 29.7374 39.296 29.9268C39.3985 30.0351 39.5112 30.1433 39.6238 30.2515C39.8287 30.468 40.0234 30.6664 40.218 30.8468C40.2692 30.8919 40.3102 30.928 40.3204 30.946H37.9746C37.8414 30.946 37.7287 30.928 37.657 30.91C37.6365 30.901 37.616 30.8919 37.5955 30.8739C37.575 30.8649 37.5546 30.8559 37.5341 30.8468C37.4624 30.8017 37.3702 30.7206 37.278 30.6213C36.9297 30.2606 36.5711 29.8637 36.1819 29.4398L35.9975 29.2233C35.9872 29.2233 35.9667 29.2233 35.9258 29.2323C35.7004 29.2323 35.0243 29.2323 33.8974 29.2414H32.5145V30.3237C32.5145 30.5312 32.4223 30.7025 32.2174 30.8468C32.1047 30.919 31.9613 30.9551 31.8077 30.9551H30.5579V24.9571C30.5579 24.8488 30.5784 24.7586 30.6091 24.6955C30.6194 24.6594 30.6398 24.6143 30.6808 24.5602C30.7013 24.5332 30.732 24.4971 30.773 24.47C30.9267 24.3437 31.1008 24.2806 31.2852 24.2806ZM32.5145 26.0124V27.5186H36.9706C37.3189 27.5186 37.5853 27.4645 37.7697 27.3653C37.9029 27.2931 37.995 27.1939 38.0565 27.0676C38.1077 26.9775 38.1385 26.8692 38.1385 26.752C38.1385 26.5175 38.0155 26.328 37.7697 26.1657C37.7287 26.1477 37.698 26.1296 37.657 26.1116C37.6468 26.1116 37.6365 26.1026 37.616 26.1026C37.5546 26.0665 37.4521 26.0484 37.3189 26.0214C37.278 26.0214 37.2165 26.0214 37.1448 26.0124H32.5145ZM47.8088 24.2806H52.5036C53.487 24.2806 55.1743 24.47 55.8299 24.8398C55.9426 24.903 56.0655 24.9841 56.1987 25.0833C56.7416 25.5433 57.0182 26.1026 57.0182 26.779C57.0182 27.3473 56.8133 27.8343 56.424 28.2402C56.3216 28.3394 56.2396 28.4116 56.1679 28.4567C56.004 28.5739 55.8606 28.6641 55.7479 28.7182C55.0923 29.0519 54.3035 29.2233 53.3713 29.2233L49.1815 29.2414H49.0688V30.3237C49.0688 30.5312 48.9664 30.7025 48.7615 30.8468C48.6386 30.919 48.4952 30.9551 48.3415 30.9551H47.1122V24.903C47.1122 24.7226 47.2044 24.5692 47.3786 24.4249C47.5117 24.3257 47.6552 24.2806 47.8088 24.2806ZM49.0688 26.0124V27.5186H53.5147C53.9347 27.5186 54.2421 27.4465 54.4264 27.2841C54.4572 27.2571 54.4982 27.23 54.5289 27.1939C54.6313 27.0676 54.6825 26.9233 54.6825 26.77C54.6825 26.4453 54.4982 26.2198 54.1396 26.0845C53.9757 26.0394 53.7708 26.0124 53.525 26.0124H49.0688ZM60.9007 24.2806H62.4987C62.8163 24.2806 63.0929 24.3979 63.308 24.6414C63.3592 24.7045 63.4309 24.8128 63.5231 24.9661C63.5334 24.9841 63.5539 25.0022 63.5641 25.0202C63.5948 25.0653 63.8714 25.4982 64.4041 26.31C64.5475 26.5445 64.7217 26.8151 64.9061 27.1127C66.1046 28.9618 66.7193 29.9088 66.75 29.9539L67.3851 30.9551H65.7051C65.2646 30.9551 64.9368 30.7747 64.7319 30.4049C64.5783 30.1794 64.4758 30.017 64.4041 29.9088C64.3427 29.8096 64.3119 29.7645 64.3017 29.7555H59.108C59.0977 29.7555 59.0875 29.7645 59.0772 29.7645C59.0772 29.7735 59.067 29.7825 59.067 29.8096L58.5753 30.5672C58.3499 30.8288 58.0631 30.9551 57.6943 30.9551H56.0348C56.0245 30.9551 56.0245 30.9551 56.0245 30.9551V30.946C56.8235 29.6923 57.5201 28.61 58.1143 27.699C58.5855 26.9684 58.9645 26.3731 59.2616 25.9222C59.7124 25.2277 59.948 24.8579 59.9685 24.8308C60.0197 24.7406 60.0811 24.6504 60.1529 24.5783C60.3577 24.3798 60.6138 24.2806 60.9007 24.2806ZM61.6997 25.7057L59.9992 28.3484H63.4002C62.2938 26.6257 61.7202 25.7508 61.6997 25.7057ZM70.1203 24.2806H77.0247C77.2194 24.2806 77.3935 24.3347 77.5574 24.452C77.7726 24.6143 77.8852 24.8218 77.8852 25.0743V26.0124H77.875C77.3628 26.0214 76.2872 26.0214 74.6481 26.0214C73.3574 26.0304 72.3637 26.0304 71.6466 26.0304C70.9091 26.0394 70.3969 26.0394 70.1305 26.0394C70.0793 26.0394 70.0281 26.0575 69.9871 26.0845C69.9461 26.1206 69.9256 26.1657 69.9256 26.2288V26.5896C69.9256 26.6798 69.9666 26.7339 70.0588 26.77C70.0691 26.77 70.0793 26.779 70.0793 26.779C70.0895 26.779 70.0998 26.779 70.11 26.779C71.7593 26.77 72.6915 26.77 72.9271 26.77C72.9886 26.77 73.091 26.77 73.2447 26.761C73.6749 26.761 74.4842 26.752 75.6828 26.752H75.7238C75.8774 26.752 76.0925 26.77 76.3486 26.8061C76.5433 26.8331 76.6969 26.8692 76.8199 26.9143C77.2091 27.0496 77.4857 27.2571 77.6599 27.5457C77.8135 27.8073 77.8852 28.1229 77.8852 28.4927V29.1782C77.8852 29.8547 77.6599 30.3327 77.1989 30.6123C76.8404 30.8378 76.2872 30.9551 75.5701 30.9551H68.8398C68.5837 30.9551 68.3583 30.8649 68.1739 30.6755C68.0407 30.5312 67.969 30.3688 67.969 30.1794V29.2323H75.6316C75.7238 29.2323 75.7852 29.1963 75.8159 29.1241C75.8159 29.1151 75.8262 29.097 75.8262 29.088C75.8262 29.079 75.8262 29.079 75.8262 29.07V28.5739C75.8262 28.5018 75.7852 28.4567 75.7033 28.4296C75.6828 28.4206 75.6623 28.4206 75.6316 28.4206H70.1305C69.2598 28.4206 68.6656 28.2312 68.3378 27.8433C68.2661 27.7802 68.2251 27.708 68.1944 27.6539C68.1637 27.5908 68.1227 27.5186 68.092 27.4284C68.0612 27.3382 68.0407 27.239 68.0203 27.1218C67.9895 26.9865 67.9793 26.7971 67.9793 26.5355V26.4994C67.9793 25.8861 68.0407 25.4622 68.1637 25.2277C68.2251 25.0743 68.3276 24.921 68.471 24.7857C68.5529 24.7045 68.6247 24.6504 68.6861 24.6143C68.891 24.4881 69.1369 24.4069 69.393 24.3528C69.6183 24.3077 69.8642 24.2806 70.1203 24.2806ZM81.235 24.2806H88.1395C88.3341 24.2806 88.5083 24.3347 88.6722 24.452C88.8873 24.6143 89 24.8218 89 25.0743V26.0124H88.9897C88.4775 26.0214 87.4019 26.0214 85.7629 26.0214C84.4721 26.0304 83.4785 26.0304 82.7614 26.0304C82.0136 26.0394 81.5116 26.0394 81.2453 26.0394C81.1941 26.0394 81.1428 26.0575 81.1019 26.0845C81.0609 26.1206 81.0404 26.1657 81.0404 26.2288V26.5896C81.0404 26.6798 81.0814 26.7339 81.1633 26.77C81.1838 26.77 81.1838 26.779 81.1941 26.779C81.2043 26.779 81.2145 26.779 81.2248 26.779C82.8638 26.77 83.8063 26.77 84.0419 26.77C84.1034 26.77 84.2058 26.77 84.3595 26.761C84.7897 26.761 85.599 26.752 86.7975 26.752H86.8385C86.9922 26.752 87.197 26.77 87.4634 26.8061C87.6478 26.8331 87.8117 26.8692 87.9346 26.9143C88.3239 27.0496 88.6005 27.2571 88.7746 27.5457C88.918 27.8073 89 28.1229 89 28.4927V29.1782C89 29.8547 88.7644 30.3327 88.3136 30.6123C87.9551 30.8378 87.4019 30.9551 86.6746 30.9551H79.9545C79.6984 30.9551 79.4731 30.8649 79.2887 30.6755C79.1555 30.5312 79.0838 30.3688 79.0838 30.1794V29.2323H86.7463C86.8385 29.2323 86.8897 29.1963 86.9205 29.1241C86.9307 29.1151 86.9307 29.097 86.9409 29.088C86.9409 29.079 86.9409 29.079 86.9409 29.07V28.5739C86.9409 28.5018 86.9 28.4567 86.818 28.4296C86.7975 28.4206 86.7668 28.4206 86.7463 28.4206H81.2453C80.3745 28.4206 79.7701 28.2312 79.4526 27.8433C79.3809 27.7802 79.3399 27.708 79.3092 27.6539C79.2682 27.5908 79.2374 27.5186 79.2067 27.4284C79.176 27.3382 79.1453 27.239 79.1248 27.1218C79.1043 26.9865 79.094 26.7971 79.094 26.5355V26.4994C79.094 25.8861 79.1555 25.4622 79.2784 25.2277C79.3399 25.0743 79.4423 24.921 79.5857 24.7857C79.6677 24.7045 79.7394 24.6504 79.8009 24.6143C80.0058 24.4881 80.2414 24.4069 80.5077 24.3528C80.7331 24.3077 80.9789 24.2806 81.235 24.2806ZM73.173 32.3351C70.653 44.6467 58.4114 54 43.701 54C28.9803 54 16.749 44.6467 14.2289 32.3351H17.087C19.5866 43.8891 31.1213 52.629 44.9815 52.629C58.8416 52.629 70.3764 43.8891 72.8759 32.3351H73.173Z" fill="white"/>
</svg>
